<svg width="32" height="32" viewBox="0 0 32 32" fill="none" xmlns="http://www.w3.org/2000/svg">
  <!-- Hand with heart cutout -->
  <g transform="translate(4, 4)">
    <!-- Hand outline -->
    <path d="M8 8 C8 6, 10 4, 12 4 C14 4, 16 6, 16 8 C16 10, 14 12, 12 12 C10 12, 8 10, 8 8 Z" 
          fill="#D97706" stroke="#D97706" stroke-width="1"/>
    
    <!-- Fingers -->
    <path d="M8 8 C8 6, 6 4, 4 2" stroke="#D97706" stroke-width="1" fill="none"/>
    <path d="M10 8 C10 6, 9 4, 8 2" stroke="#D97706" stroke-width="1" fill="none"/>
    <path d="M12 8 C12 6, 13 4, 14 2" stroke="#D97706" stroke-width="1" fill="none"/>
    <path d="M14 8 C14 6, 16 4, 18 2" stroke="#D97706" stroke-width="1" fill="none"/>
    
    <!-- Heart cutout in palm -->
    <path d="M11 7 C11 6, 12 5, 12 5 C13 5, 14 6, 14 7 C14 8, 13 9, 12 9 C11 9, 10 8, 10 7 Z" 
          fill="#FEF3C7"/>
  </g>
  
  <!-- Text "TC" -->
  <g transform="translate(18, 8)">
    <text x="0" y="8" font-family="Arial, sans-serif" font-size="6" font-weight="700" fill="#0F766E">TC</text>
  </g>
</svg>
