<svg width="120" height="60" viewBox="0 0 120 60" fill="none" xmlns="http://www.w3.org/2000/svg">
  <!-- Hand with heart cutout -->
  <g transform="translate(10, 10)">
    <!-- Hand outline -->
    <path d="M15 25 C15 20, 18 15, 25 15 C32 15, 35 20, 35 25 C35 30, 32 35, 25 35 C18 35, 15 30, 15 25 Z" 
          fill="#D97706" stroke="#D97706" stroke-width="2"/>
    
    <!-- Fingers -->
    <path d="M15 25 C15 20, 12 15, 8 10" stroke="#D97706" stroke-width="2" fill="none"/>
    <path d="M20 25 C20 18, 18 12, 15 8" stroke="#D97706" stroke-width="2" fill="none"/>
    <path d="M25 25 C25 18, 27 12, 30 8" stroke="#D97706" stroke-width="2" fill="none"/>
    <path d="M30 25 C30 20, 33 15, 37 10" stroke="#D97706" stroke-width="2" fill="none"/>
    
    <!-- Heart cutout in palm -->
    <path d="M22 22 C22 20, 23 19, 25 19 C27 19, 28 20, 28 22 C28 24, 27 25, 25 25 C23 25, 22 24, 22 22 Z" 
          fill="#FEF3C7"/>
    <path d="M23 21 C23 20, 24 19, 25 19 C26 19, 27 20, 27 21 C27 22, 26 23, 25 23 C24 23, 23 22, 23 21 Z" 
          fill="#FEF3C7"/>
  </g>
  
  <!-- Text "Tu Causa" -->
  <g transform="translate(50, 15)">
    <!-- "Tu" -->
    <text x="0" y="15" font-family="Arial, sans-serif" font-size="14" font-weight="600" fill="#0F766E">Tu</text>
    
    <!-- "Causa" -->
    <text x="0" y="35" font-family="Arial, sans-serif" font-size="18" font-weight="700" fill="#0F766E">Causa</text>
  </g>
</svg>
